<svg width="48" height="48" viewBox="0 0 48 48" fill="none" xmlns="http://www.w3.org/2000/svg">
<path d="M42 32.84V39.912C42.0002 40.4184 41.8084 40.9059 41.4632 41.2764C41.118 41.6468 40.6451 41.8726 40.14 41.908C39.266 41.968 38.552 42 38 42C20.326 42 6 27.674 6 10C6 9.448 6.03 8.734 6.092 7.86C6.12744 7.35489 6.35316 6.88202 6.72361 6.53682C7.09405 6.19161 7.58165 5.99977 8.088 6H15.16C15.4081 5.99975 15.6474 6.09172 15.8315 6.25804C16.0155 6.42436 16.1312 6.65317 16.156 6.9C16.202 7.36 16.244 7.726 16.284 8.004C16.6815 10.7778 17.496 13.4757 18.7 16.006C18.89 16.406 18.766 16.884 18.406 17.14L14.09 20.224C16.7289 26.3729 21.6291 31.2731 27.778 33.912L30.858 29.604C30.9839 29.428 31.1676 29.3018 31.377 29.2473C31.5864 29.1928 31.8083 29.2136 32.004 29.306C34.534 30.5077 37.2312 31.3202 40.004 31.716C40.282 31.756 40.648 31.8 41.104 31.844C41.3505 31.8693 41.5788 31.9851 41.7447 32.1692C41.9106 32.3532 42.0023 32.5922 42.002 32.84H42Z" fill="white"/>
</svg>
