<svg width="36" height="44" viewBox="0 0 36 44" fill="none" xmlns="http://www.w3.org/2000/svg">
<path d="M30.728 30.7278L18 43.4558L5.27201 30.7278C2.75469 28.2105 1.04037 25.0032 0.345857 21.5115C-0.348659 18.0199 0.00781369 14.4007 1.3702 11.1116C2.73258 7.82259 5.03969 5.01139 7.99977 3.03353C10.9598 1.05568 14.44 0 18 0C21.5601 0 25.0402 1.05568 28.0002 3.03353C30.9603 5.01139 33.2674 7.82259 34.6298 11.1116C35.9922 14.4007 36.3487 18.0199 35.6542 21.5115C34.9596 25.0032 33.2453 28.2105 30.728 30.7278ZM18 25.9998C20.1217 25.9998 22.1566 25.157 23.6569 23.6567C25.1572 22.1564 26 20.1216 26 17.9998C26 15.8781 25.1572 13.8433 23.6569 12.343C22.1566 10.8427 20.1217 9.99984 18 9.99984C15.8783 9.99984 13.8434 10.8427 12.3432 12.343C10.8429 13.8433 10 15.8781 10 17.9998C10 20.1216 10.8429 22.1564 12.3432 23.6567C13.8434 25.157 15.8783 25.9998 18 25.9998ZM18 21.9998C16.9391 21.9998 15.9217 21.5784 15.1716 20.8283C14.4214 20.0781 14 19.0607 14 17.9998C14 16.939 14.4214 15.9216 15.1716 15.1714C15.9217 14.4213 16.9391 13.9998 18 13.9998C19.0609 13.9998 20.0783 14.4213 20.8284 15.1714C21.5786 15.9216 22 16.939 22 17.9998C22 19.0607 21.5786 20.0781 20.8284 20.8283C20.0783 21.5784 19.0609 21.9998 18 21.9998Z" fill="white"/>
</svg>
